<?xml version="1.0" standalone="no"?>
<!DOCTYPE svg PUBLIC "-//W3C//DTD SVG 20010904//EN"
 "http://www.w3.org/TR/2001/REC-SVG-20010904/DTD/svg10.dtd">
<svg version="1.0" xmlns="http://www.w3.org/2000/svg"
 width="300.000000pt" height="300.000000pt" viewBox="0 0 300.000000 300.000000"
 preserveAspectRatio="xMidYMid meet">
<metadata>
Created by potrace 1.11, written by Peter Selinger 2001-2013
</metadata>
<g transform="translate(0.000000,300.000000) scale(0.100000,-0.100000)"
fill="#000000" stroke="none">
<path d="M797 1508 c-180 -662 -327 -1206 -327 -1211 0 -4 64 -6 142 -5 l143
3 135 513 135 512 387 0 c295 0 388 3 388 12 0 7 -14 56 -32 110 l-32 98 -326
2 -325 3 152 575 c84 316 152 578 153 583 0 4 -60 7 -133 7 l-132 0 -328
-1202z"/>
<path d="M1560 2708 c0 -2 -65 -239 -144 -528 -79 -289 -140 -528 -136 -533 3
-4 74 -6 156 -5 l149 3 66 245 66 245 15 -50 c8 -27 122 -440 254 -917 l239
-868 148 0 c121 0 147 3 147 14 0 8 -146 549 -325 1201 -179 653 -325 1189
-325 1191 0 4 -310 6 -310 2z"/>
<path d="M1159 1228 c0 -2 -58 -213 -128 -470 l-128 -468 161 0 161 0 128 458
c70 251 127 463 127 470 0 9 -39 12 -160 12 -88 0 -160 -1 -161 -2z"/>
</g>
</svg>
