<svg xmlns="http://www.w3.org/2000/svg" width="31.145" height="39.094" viewBox="0 0 31.145 39.094">
  <g id="Group_2" data-name="Group 2" transform="translate(-14.861 -4.388)">
    <path id="Path_3" data-name="Path 3" d="M-.11-.029,4.2,1.124,4.48,37.882.092,37.747Z" transform="matrix(-0.966, 0.259, -0.259, -0.966, 45.892, 42.024)" fill="#fff"/>
    <path id="Path_4" data-name="Path 4" d="M-.007,16.9l4.476-1.2L4.493-.962.048.229Z" transform="matrix(0.966, 0.259, -0.259, 0.966, 31.471, 5.319)" fill="#fff"/>
    <path id="Path_5" data-name="Path 5" d="M.242,39.086l4.1-1.1L4.2.118.4,1.049Z" transform="matrix(0.966, 0.259, -0.259, 0.966, 24.743, 4.392)" fill="#66696c"/>
    <path id="Path_6" data-name="Path 6" d="M0,14.326l3.336,2.542V1.561L0,2.643Z" transform="translate(36.632 23.264) rotate(90)" fill="#66696c"/>
    <path id="Path_7" data-name="Path 7" d="M-.079,15.043l4.593-1.231L4.673-.871-.02.386Z" transform="matrix(0.966, 0.259, -0.259, 0.966, 25.463, 27.741)" fill="#fff"/>
  </g>
</svg>
